# xmcd
#
# Track frame offsets: 
#        182
#        18572
#        31130
#        46152
#        60975
#        77255
#        91715
#        109050
#        124750
#        138152
#        154527
#        194482
#        210852
#        225742
#        246965
#        264337
#        292115
#        312617
#
# Disc length: 4417 seconds
#
# Revision: 6
# Processed by: cddbd v1.5.2PL0 Copyright (c) Steve Scherf et al.
# Submitted via: ExactAudioCopyFreeDBPlugin 1.0
#
DISCID=e5113f12
DTITLE=The Moments - Love on a Two-Way Street:  The Best of the Moment
DTITLE=s
DYEAR=1996
DGENRE=Rhythm and Blues
TTITLE0=Not on the Outside
TTITLE1=Sunday
TTITLE2=I Do
TTITLE3=Lovely Way She Loves
TTITLE4=Love on a Two-Way Street
TTITLE5=If I Didn't Care
TTITLE6=All I Have
TTITLE7=Just Because He Wants to Make Love to You (Dosen't Mean He Lov
TTITLE7=es You)
TTITLE8=My Thing
TTITLE9=Gotta Find a Way
TTITLE10=Sexy Mama  (Album Version)
TTITLE11=What's Your Name
TTITLE12=Look at Me (I'm in Love)
TTITLE13=Come Away with Me
TTITLE14=With You
TTITLE15=I Don't Wanna Go
TTITLE16=I Could Have Loved You
TTITLE17=I'm Willing (Harry Ray)
EXTD=
EXTT0=
EXTT1=
EXTT2=
EXTT3=
EXTT4=
EXTT5=
EXTT6=
EXTT7=
EXTT8=
EXTT9=
EXTT10=
EXTT11=
EXTT12=
EXTT13=
EXTT14=
EXTT15=
EXTT16=
EXTT17=
PLAYORDER=
